<?xml version="1.0" encoding="utf-8" ?><svg xmlns="http://www.w3.org/2000/svg" xmlns:xlink="http://www.w3.org/1999/xlink" width="713" height="681" viewBox="0 0 713 681"><clipPath id="cl_5"><rect y="7.6293945e-06" width="713" height="680.71265"/></clipPath><g clip-path="url(#cl_5)"><path fill="white" transform="matrix(0.629303 0 0 0.628543 0 37.7126)" d="M655.664 237.898C642.411 229.786 588.389 199.895 579.858 191.252C568.817 193.415 431.251 280.18 409.058 293.737C361.641 322.702 313.243 350.424 266.641 380.67C266.889 428.359 266.692 476.506 266.495 524.703C266.212 594.033 265.928 663.468 266.966 731.802L268.109 731.715C276.691 731.136 287.962 731.231 298.082 731.317C301.487 731.346 304.762 731.373 307.76 731.374L370.594 731.489C374.614 731.534 378.749 731.735 382.922 731.937C391.903 732.371 401.061 732.815 409.633 731.743C433.123 728.809 545.339 653.96 576.237 636.217C581.912 636.298 688.105 702.094 701.045 710.159C736.199 732.069 736.283 732.067 764.249 731.397C770.183 731.254 777.373 731.082 786.42 731.083L888.531 731.285C887.636 682.224 887.923 632.042 888.207 582.183C888.348 557.466 888.489 532.828 888.485 508.445L888.301 425.077C888.271 420.877 888.158 416.004 888.04 410.913C887.797 400.418 887.532 388.999 887.925 380.643L655.664 237.898ZM319.404 493.401C319.281 465.506 319.157 437.689 319.135 410.087C379.274 372.599 439.732 335.624 500.502 299.166C525.203 284.254 552.585 266.178 577.091 252.304C584.451 255.752 596.039 263.663 603.259 268.05C621.628 279.209 639.776 291.208 658.205 302.246C691.801 321.958 725.242 341.935 758.523 362.173C783.508 377.083 812.224 393.875 836.159 410.458L836.161 678.782C823.158 678.419 809.204 678.555 795.593 678.688C789.915 678.744 784.297 678.799 778.832 678.817C779.598 669.59 779.52 657.577 779.452 647.021C779.434 644.185 779.416 641.454 779.416 638.911L779.452 568.73C779.551 558.707 779.975 547.141 780.423 534.918C781.588 503.157 782.916 466.955 779.121 441.853C748.176 420.03 704.04 395.858 670.914 375.554C641.731 357.665 607.769 335.252 578.505 318.905C567.591 323.225 530.826 347.451 518.797 354.761L374.696 442.453L374.856 601.865C374.87 607.163 374.783 614.232 374.686 622.034C374.441 641.903 374.137 666.523 375.302 678.714C360.798 678.197 345.166 678.37 330.15 678.536C326.432 678.577 322.752 678.617 319.137 678.647C319.955 617.513 319.679 555.266 319.404 493.401ZM428.769 471.111C477.207 442.037 528.95 406.926 577.677 379.785C584.788 383.572 592.412 388.292 599.194 392.655C641.575 419.919 685.49 444.885 727.744 472.298C727.648 480.148 727.623 488.006 727.598 495.867C727.553 509.696 727.508 523.531 727.08 537.333C720.91 533.243 712.953 528.452 706.48 524.859C663.302 500.893 621.288 469.988 578.154 446.43C527.78 476.352 477.737 506.827 428.032 537.848C427.822 529.518 428.616 520.152 429.389 511.044C430.375 499.409 431.327 488.195 430.102 480.098L428.769 471.111ZM672.447 632.04L581.139 575.381C577.863 574.353 575.95 574.807 572.943 576.546C524.333 604.654 477.171 636.986 428.121 664.23C428.087 657.951 428.026 651.684 427.965 645.422C427.817 630.258 427.67 615.122 427.913 599.908C472.098 571.04 531.093 533.1 577.303 507.813C581.732 508.675 718.654 593.364 726.353 599.567C728.742 606.537 727.633 654.873 726.714 664.788C715.521 656.523 685.799 640.149 672.447 632.04Z"/></g></svg>
